# MagicaVoxel @ Ephtracy

# material
mtllib usa sign.mtl
usemtl palette

# normals
vn -1 0 0
vn 1 0 0
vn 0 0 1
vn 0 0 -1
vn 0 -1 0
vn 0 1 0

# texcoords
vt 0.865234 0.5
vt 0.958984 0.5

# verts
v -13 6 -5
v -13 6 -7
v -13 13 -5
v -13 13 -7
v -7 0 -5
v -7 0 -7
v -7 6 -5
v -7 6 -7
v -4 0 -5
v -4 0 -7
v -4 6 -5
v -4 6 -7
v 2 6 -5
v 2 6 -7
v 2 13 -5
v 2 13 -7
v -13 6 -5
v -13 13 -5
v -12 7 -5
v -12 12 -5
v -11 8 -5
v -11 12 -5
v -10 8 -5
v -10 12 -5
v -9 7 -5
v -9 12 -5
v -7 0 -5
v -7 6 -5
v -7 7 -5
v -7 8 -5
v -7 9 -5
v -7 12 -5
v -6 10 -5
v -6 11 -5
v -5 8 -5
v -5 9 -5
v -4 0 -5
v -4 6 -5
v -4 7 -5
v -4 10 -5
v -4 11 -5
v -4 12 -5
v -2 7 -5
v -2 12 -5
v -1 7 -5
v -1 9 -5
v -1 10 -5
v -1 11 -5
v 0 7 -5
v 0 9 -5
v 0 10 -5
v 0 11 -5
v 1 7 -5
v 1 12 -5
v 2 6 -5
v 2 13 -5
v -13 6 -7
v -13 13 -7
v -7 0 -7
v -7 6 -7
v -4 0 -7
v -4 6 -7
v 2 6 -7
v 2 13 -7
v -7 0 -5
v -4 0 -5
v -7 0 -7
v -4 0 -7
v -13 6 -5
v -7 6 -5
v -4 6 -5
v 2 6 -5
v -13 6 -7
v -7 6 -7
v -4 6 -7
v 2 6 -7
v -13 13 -5
v 2 13 -5
v -13 13 -7
v 2 13 -7

# faces
f 3/1/1 2/1/1 1/1/1
f 4/1/1 2/1/1 3/1/1
f 7/1/1 6/1/1 5/1/1
f 8/1/1 6/1/1 7/1/1
f 9/1/2 10/1/2 11/1/2
f 11/1/2 10/1/2 12/1/2
f 13/1/2 14/1/2 15/1/2
f 15/1/2 14/1/2 16/1/2
f 19/1/3 18/1/3 17/1/3
f 20/1/3 18/1/3 19/1/3
f 21/2/3 20/2/3 19/2/3
f 22/1/3 18/1/3 20/1/3
f 22/2/3 20/2/3 21/2/3
f 23/2/3 21/2/3 19/2/3
f 23/1/3 22/1/3 21/1/3
f 24/1/3 18/1/3 22/1/3
f 24/1/3 22/1/3 23/1/3
f 25/1/3 19/1/3 17/1/3
f 25/2/3 23/2/3 19/2/3
f 25/2/3 24/2/3 23/2/3
f 26/1/3 18/1/3 24/1/3
f 26/2/3 24/2/3 25/2/3
f 28/1/3 25/1/3 17/1/3
f 28/1/3 26/1/3 25/1/3
f 29/1/3 26/1/3 28/1/3
f 30/1/3 26/1/3 29/1/3
f 31/1/3 26/1/3 30/1/3
f 32/1/3 18/1/3 26/1/3
f 32/1/3 26/1/3 31/1/3
f 33/2/3 32/2/3 31/2/3
f 34/2/3 32/2/3 33/2/3
f 35/1/3 31/1/3 30/1/3
f 35/2/3 30/2/3 29/2/3
f 36/2/3 33/2/3 31/2/3
f 36/1/3 31/1/3 35/1/3
f 37/1/3 28/1/3 27/1/3
f 37/1/3 29/1/3 28/1/3
f 38/1/3 29/1/3 37/1/3
f 39/2/3 36/2/3 35/2/3
f 39/1/3 29/1/3 38/1/3
f 39/2/3 35/2/3 29/2/3
f 40/2/3 33/2/3 36/2/3
f 40/2/3 36/2/3 39/2/3
f 40/1/3 34/1/3 33/1/3
f 41/2/3 32/2/3 34/2/3
f 41/1/3 34/1/3 40/1/3
f 42/1/3 18/1/3 32/1/3
f 42/2/3 32/2/3 41/2/3
f 43/1/3 40/1/3 39/1/3
f 43/1/3 39/1/3 38/1/3
f 43/1/3 42/1/3 41/1/3
f 43/1/3 41/1/3 40/1/3
f 44/1/3 18/1/3 42/1/3
f 44/1/3 42/1/3 43/1/3
f 45/1/3 43/1/3 38/1/3
f 45/2/3 44/2/3 43/2/3
f 46/2/3 44/2/3 45/2/3
f 47/2/3 44/2/3 46/2/3
f 48/2/3 44/2/3 47/2/3
f 49/1/3 45/1/3 38/1/3
f 49/1/3 46/1/3 45/1/3
f 50/2/3 47/2/3 46/2/3
f 50/1/3 46/1/3 49/1/3
f 51/1/3 48/1/3 47/1/3
f 51/2/3 47/2/3 50/2/3
f 52/2/3 44/2/3 48/2/3
f 52/1/3 48/1/3 51/1/3
f 53/2/3 51/2/3 50/2/3
f 53/2/3 50/2/3 49/2/3
f 53/2/3 52/2/3 51/2/3
f 53/1/3 49/1/3 38/1/3
f 54/1/3 18/1/3 44/1/3
f 54/2/3 52/2/3 53/2/3
f 54/2/3 44/2/3 52/2/3
f 55/1/3 53/1/3 38/1/3
f 55/1/3 54/1/3 53/1/3
f 56/1/3 18/1/3 54/1/3
f 56/1/3 54/1/3 55/1/3
f 57/1/4 58/1/4 60/1/4
f 59/1/4 60/1/4 61/1/4
f 60/1/4 58/1/4 62/1/4
f 61/1/4 60/1/4 62/1/4
f 62/1/4 58/1/4 63/1/4
f 63/1/4 58/1/4 64/1/4
f 67/1/5 66/1/5 65/1/5
f 68/1/5 66/1/5 67/1/5
f 73/1/5 70/1/5 69/1/5
f 74/1/5 70/1/5 73/1/5
f 75/1/5 72/1/5 71/1/5
f 76/1/5 72/1/5 75/1/5
f 77/1/6 78/1/6 79/1/6
f 79/1/6 78/1/6 80/1/6
